<svg width="24" height="24" viewBox="0 0 24 24" fill="none" xmlns="http://www.w3.org/2000/svg">
<path d="M18.5 6.5C18.5 7.05228 18.0523 7.5 17.5 7.5C16.9477 7.5 16.5 7.05228 16.5 6.5C16.5 5.94772 16.9477 5.5 17.5 5.5C18.0523 5.5 18.5 5.94772 18.5 6.5Z" fill="#292556"/>
<path d="M21 10V9.5V9.5C21 7.16537 21 5.99805 20.5277 5.11441C20.1548 4.4167 19.5833 3.84525 18.8856 3.47231C18.0019 3 16.8346 3 14.5 3H10.2C7.20021 3 5.70032 3 4.64886 3.76393C4.30928 4.01065 4.01065 4.30928 3.76393 4.64886C3 5.70032 3 7.20021 3 10.2V13.8C3 16.7998 3 18.2997 3.76393 19.3511C4.01065 19.6907 4.30928 19.9893 4.64886 20.2361C5.70032 21 7.20021 21 10.2 21H14C16.8089 21 18.2134 21 19.2223 20.3259C19.659 20.034 20.034 19.659 20.3259 19.2223C21 18.2134 21 16.8089 21 14V14M16 12C16 14.2091 14.2091 16 12 16C9.79086 16 8 14.2091 8 12C8 9.79086 9.79086 8 12 8C14.2091 8 16 9.79086 16 12Z" stroke="#292556" stroke-width="1.5" stroke-linecap="round" stroke-linejoin="round"/>
</svg>
